# xmcd CD database file
#
# Track frame offsets:
#	150
#	12870
#	26321
#	36207
#	49811
#	62679
#	73132
#	86437
#	98588
#	111476
#	125199
#	137533
#	151519
#	164305
#	178287
#	188051
#	200467
#	210967
#	222308
#	235763
#
# Disc length: 3301 seconds
#
# Revision: 1
# Processed by: cddbd v1.5.2PL0 Copyright (c) Steve Scherf et al.
# Submitted via: CDex 1.83
#
DISCID=100ce314
DTITLE=Dean Martin - The Rat Pack 09 - Dean Martin
DYEAR=1900
DGENRE=Jazz
TTITLE0=Which Way Did My Heart Go?
TTITLE1=Tarra, Talarra, Talar
TTITLE2=Zing A Zing A Zing Boom
TTITLE3=That Certain Party
TTITLE4=I Got The Sun In The Morning
TTITLE5=Go, Go, Go, Go
TTITLE6=In The Cool, Cool, Cool Of The Evening
TTITLE7=The Night Is Young And You Are So Beautiful
TTITLE8=Walking My Baby Back Home
TTITLE9=Muskrat Ramble
TTITLE10=If Should Love Again
TTITLE11=That's Amore
TTITLE12=Second Chance
TTITLE13=The Money Song
TTITLE14=Once In Love  With Amy
TTITLE15=You Was
TTITLE16=Have A Little Sympathy
TTITLE17=Dreamy Old New England Moon
TTITLE18=That Lucky Old Sun
TTITLE19=Vieni Su
EXTD=
EXTT0=
EXTT1=
EXTT2=
EXTT3=
EXTT4=
EXTT5=
EXTT6=
EXTT7=
EXTT8=
EXTT9=
EXTT10=
EXTT11=
EXTT12=
EXTT13=
EXTT14=
EXTT15=
EXTT16=
EXTT17=
EXTT18=
EXTT19=
PLAYORDER=
